<?xml version="1.0" encoding="UTF-8" standalone="no"?>
<!DOCTYPE svg PUBLIC "-//W3C//DTD SVG 1.1//EN" "http://www.w3.org/Graphics/SVG/1.1/DTD/svg11.dtd">
<svg width="394.97" height="222.17" viewBox="0.00 0.00 1920.00 1080.00" xmlns="http://www.w3.org/2000/svg" xmlns:xlink="http://www.w3.org/1999/xlink">
<g stroke-linecap="round" transform="translate(57.00, 20.00)" id="Layer_6_Copy">
<path d="M231.81,735.19 C234.80,733.83 242.33,733.10 245.80,734.07 C249.61,735.20 255.02,739.03 257.38,742.26 C259.46,745.23 261.35,752.62 261.11,755.92 C260.80,759.22 257.72,766.16 255.18,768.69 C252.33,771.44 246.37,774.22 242.43,774.64 C238.85,774.95 231.56,772.85 228.84,770.96 C226.15,769.02 221.71,762.82 220.78,759.31 C219.82,755.43 220.37,748.83 221.95,745.18 C223.45,741.89 228.85,736.60 231.81,735.19 Z" fill="none" stroke="rgb(67, 67, 67)" stroke-width="3.00" stroke-opacity="1.00" stroke-linejoin="round"/>
</g>
</svg>
